<svg width="60" height="55" viewBox="0 0 60 55" fill="none" xmlns="http://www.w3.org/2000/svg">
<path d="M49.4375 0.633178C49.4375 0.633178 54.9748 3.67931 57.4902 9.8922C58.401 12.1421 59.2213 13.1313 59.1007 14.3317C58.9378 15.9121 57.46 17.5407 55.8796 19.9655C53.4126 23.7415 49.8356 23.9888 49.8356 23.9888C49.8356 23.9888 47.4771 24.3206 46.2104 26.4016C45.5529 27.4753 45.3358 29.7071 43.7916 32.0354C42.4043 34.1285 39.3521 35.5641 38.5559 37.6693C37.1444 41.3849 37.3495 40.4801 37.3495 40.4801L21.763 45.5892C21.763 45.5892 21.9681 41.2522 20.5566 37.5305C19.7604 35.4254 16.7082 33.9837 15.3209 31.8907C13.7767 29.5623 13.5596 27.3245 12.9021 26.2508C11.6354 24.1698 9.27689 23.832 9.27689 23.832C9.27689 23.832 5.69995 23.5847 3.23289 19.8027C1.65252 17.3778 0.174697 15.7492 0.0118342 14.1628C-0.108804 12.9745 0.711539 11.9792 1.62236 9.72934C4.13768 3.51041 9.68103 0.464283 9.68103 0.464283C9.68103 0.464283 12.1059 -0.199229 14.1145 0.0601438C15.7009 0.26523 16.4247 1.26653 17.3356 2.07481C17.6613 2.36434 17.0701 4.52981 15.725 4.89776C15.0555 5.07871 14.5367 4.05329 14.1145 4.08948C13.5958 4.13773 13.2218 4.79521 12.9081 4.49362C11.0563 2.7142 10.9538 2.90722 9.28292 4.49362C8.3721 5.36222 8.42638 8.155 8.07653 9.72934C7.72668 11.2976 6.56252 12.4558 6.46601 12.9504C6.11012 14.772 8.69179 13.1856 10.8995 13.7587C12.5341 14.1869 13.5415 16.66 14.9288 16.5816C19.694 16.2981 21.0392 22.2999 24.1939 20.2068C24.779 19.8208 26.1241 19.296 26.3654 17.6794C26.3231 17.3899 26.3412 16.3524 26.3412 15.9603C26.3352 15.2184 25.8044 14.5669 25.8044 14.5669C25.8044 14.5669 25.3641 14.8927 24.9961 14.1628C24.6221 13.4209 24.1154 12.1421 24.592 11.3399C26.5946 9.27091 23.7053 8.26358 25.7984 6.10414C27.1013 4.75902 29.2908 5.0184 30.2077 5.19935C31.1004 5.2838 32.156 5.57333 32.9522 6.39368C33.4408 6.90036 33.658 7.52165 33.7304 7.92579C33.9656 9.25885 32.7773 9.68711 34.3155 11.2735C34.8644 11.8224 34.4964 13.5777 34.1224 14.3196C33.7545 15.0495 33.3142 14.7238 33.3142 14.7238C33.3142 14.7238 32.3068 15.1882 32.2887 15.7794C32.2827 15.9543 32.4154 16.9797 32.4094 17.221C32.6567 18.5782 34.3396 19.9655 34.9247 20.3576C38.0794 22.4447 39.4245 16.4549 44.1897 16.7324C45.5771 16.8169 46.5844 14.3438 48.2191 13.9155C50.4268 13.3425 53.0084 14.9349 52.6525 13.1133C52.556 12.6186 51.3919 11.4605 51.042 9.8922C50.6922 8.3239 50.7525 5.53111 49.8356 4.66251C48.1648 3.07611 48.0622 2.88309 46.2104 4.66251C45.8968 4.96411 45.5288 4.30663 45.004 4.25837C44.5818 4.21615 44.0631 5.24158 43.3935 5.06062C42.0484 4.69267 41.4573 2.53324 41.783 2.2437C42.6938 1.43542 43.4116 0.434124 45.004 0.229038C47.0127 -0.0243035 49.4375 0.633178 49.4375 0.633178Z" fill="#505152"/>
<path fill-rule="evenodd" clip-rule="evenodd" d="M32.7193 47.1139C47.5019 41.7447 58.9355 35.8774 58.2569 34.0089C58.2302 33.9355 58.1852 33.8693 58.1225 33.8103C59.1505 33.8854 59.7842 34.1359 59.9446 34.5775C60.7326 36.747 49.8013 42.7081 35.529 47.892C23.0845 52.4119 12.0807 54.4961 9.05568 53.8249C14.0755 53.1292 22.9014 50.6798 32.7193 47.1139Z" fill="#505152"/>
<path fill-rule="evenodd" clip-rule="evenodd" d="M57.4586 31.5158C58.2807 33.6727 47.4447 39.8051 33.2557 45.213C19.0667 50.6208 6.89786 53.2563 6.07582 51.0995C5.54547 49.708 9.86756 46.6617 16.8119 43.2228C14.857 44.3932 12.9757 45.5735 11.3853 46.6319C8.87521 48.1159 7.5137 49.2759 7.74382 49.8797C8.34226 51.4499 19.4775 48.6636 32.6151 43.6565C45.7526 38.6493 55.9176 33.3174 55.3192 31.7472C55.1698 31.3553 54.364 31.2348 53.0344 31.3525C51.6033 31.3767 49.6223 31.5988 47.3524 31.971C53.12 30.5931 57.0064 30.3292 57.4586 31.5158Z" fill="#505152"/>
</svg>
